{
  "accessors": [
    {
      "bufferView": 2,
      "componentType": 5126,
      "count": 65532,
      "max": [
        0.9999107122421265,
        1.0,
        0.776580274105072
      ],
      "min": [
        -0.9999752044677734,
        -1.0,
        -0.9999921917915344
      ],
      "type": "VEC3"
    },
    {
      "bufferView": 2,
      "byteOffset": 786384,
      "componentType": 5126,
      "count": 65532,
      "max": [
        0.9999158978462219,
        1.0,
        0.7765905261039734
      ],
      "min": [
        -0.9999802708625793,
        -1.0,
        -1.0
      ],
      "type": "VEC3"
    },
    {
      "bufferView": 3,
      "componentType": 5126,
      "count": 65532,
      "max": [
        1.0,
        0.002936598379164934,
        1.0,
        1.0
      ],
      "min": [
        -1.0,
        -0.0029373695142567158,
        -0.9999997615814209,
        1.0
      ],
      "type": "VEC4"
    },
    {
      "bufferView": 1,
      "componentType": 5126,
      "count": 65532,
      "max": [
        0.9999942183494568,
        1.0
      ],
      "min": [
        0.0,
        0.0
      ],
      "type": "VEC2"
    },
    {
      "bufferView": 0,
      "componentType": 5125,
      "count": 387408,
      "type": "SCALAR"
    },
    {
      "bufferView": 2,
      "byteOffset": 1572768,
      "componentType": 5126,
      "count": 65532,
      "max": [
        0.8126934170722961,
        0.9999802708625793,
        0.8163363933563232
      ],
      "min": [
        -0.9999160170555115,
        -1.0,
        -0.7628973722457886
      ],
      "type": "VEC3"
    },
    {
      "bufferView": 2,
      "byteOffset": 2359152,
      "componentType": 5126,
      "count": 65532,
      "max": [
        0.8127032518386841,
        0.9999691247940063,
        0.8163475394248962
      ],
      "min": [
        -0.9999210238456726,
        -1.0,
        -0.7629140019416809
      ],
      "type": "VEC3"
    },
    {
      "bufferView": 3,
      "byteOffset": 1048512,
      "componentType": 5126,
      "count": 65532,
      "max": [
        1.0,
        0.0029364638030529022,
        1.0,
        1.0
      ],
      "min": [
        -1.0,
        -0.0004007933603134006,
        -1.0,
        1.0
      ],
      "type": "VEC4"
    },
    {
      "bufferView": 1,
      "byteOffset": 524256,
      "componentType": 5126,
      "count": 65532,
      "max": [
        0.9999942183494568,
        0.9979942440986633
      ],
      "min": [
        0.004000000189989805,
        0.0
      ],
      "type": "VEC2"
    },
    {
      "bufferView": 0,
      "byteOffset": 1549632,
      "componentType": 5125,
      "count": 386169,
      "type": "SCALAR"
    },
    {
      "bufferView": 2,
      "byteOffset": 3145536,
      "componentType": 5126,
      "count": 65532,
      "max": [
        0.8476771116256714,
        1.0,
        0.8509914875030518
      ],
      "min": [
        -0.9999949932098389,
        -0.5826915502548218,
        -0.9429837465286255
      ],
      "type": "VEC3"
    },
    {
      "bufferView": 2,
      "byteOffset": 3931920,
      "componentType": 5126,
      "count": 65532,
      "max": [
        0.8476848006248474,
        1.0,
        0.8510015606880188
      ],
      "min": [
        -1.0,
        -0.5826816558837891,
        -0.9429916739463806
      ],
      "type": "VEC3"
    },
    {
      "bufferView": 3,
      "byteOffset": 2097024,
      "componentType": 5126,
      "count": 65532,
      "max": [
        1.0,
        0.0027804032433778048,
        1.0,
        1.0
      ],
      "min": [
        -0.9429972767829895,
        -0.00040084405918605626,
        -1.0,
        1.0
      ],
      "type": "VEC4"
    },
    {
      "bufferView": 1,
      "byteOffset": 1048512,
      "componentType": 5126,
      "count": 65532,
      "max": [
        0.9999942183494568,
        1.0
      ],
      "min": [
        0.3020002543926239,
        0.3020002543926239
      ],
      "type": "VEC2"
    },
    {
      "bufferView": 0,
      "byteOffset": 3094308,
      "componentType": 5125,
      "count": 385380,
      "type": "SCALAR"
    },
    {
      "bufferView": 2,
      "byteOffset": 4718304,
      "componentType": 5126,
      "count": 57463,
      "max": [
        1.0,
        1.0,
        0.9999974370002747
      ],
      "min": [
        -0.9997383952140808,
        -0.5305124521255493,
        -0.742820143699646
      ],
      "type": "VEC3"
    },
    {
      "bufferView": 2,
      "byteOffset": 5407860,
      "componentType": 5126,
      "count": 57463,
      "max": [
        1.0,
        1.0,
        1.0
      ],
      "min": [
        -0.9997433423995972,
        -0.5305070877075195,
        -0.7428329586982727
      ],
      "type": "VEC3"
    },
    {
      "bufferView": 3,
      "byteOffset": 3145536,
      "componentType": 5126,
      "count": 57463,
      "max": [
        1.0,
        0.0026393935550004244,
        1.0,
        1.0
      ],
      "min": [
        -0.9999978542327881,
        -0.0029366237577050924,
        -1.0,
        1.0
      ],
      "type": "VEC4"
    },
    {
      "bufferView": 1,
      "byteOffset": 1572768,
      "componentType": 5126,
      "count": 57463,
      "max": [
        0.9999942183494568,
        1.0
      ],
      "min": [
        0.0020000000949949026,
        0.32200029492378235
      ],
      "type": "VEC2"
    },
    {
      "bufferView": 0,
      "byteOffset": 4635828,
      "componentType": 5125,
      "count": 338043,
      "type": "SCALAR"
    }
  ],
  "asset": {
    "extras": {
      "author": "Jiaxing (https://sketchfab.com/saitoyang)",
      "license": "CC-BY-4.0 (http://creativecommons.org/licenses/by/4.0/)",
      "source": "https://sketchfab.com/3d-models/earth-day-0248b78136ac4c1c876c4c38a90f222d",
      "title": "Earth (Day)"
    },
    "generator": "Sketchfab-14.32.1",
    "version": "2.0"
  },
  "bufferViews": [
    {
      "buffer": 0,
      "byteLength": 5988000,
      "name": "floatBufferViews",
      "target": 34963
    },
    {
      "buffer": 0,
      "byteLength": 2032472,
      "byteOffset": 5988000,
      "byteStride": 8,
      "name": "floatBufferViews",
      "target": 34962
    },
    {
      "buffer": 0,
      "byteLength": 6097416,
      "byteOffset": 8020472,
      "byteStride": 12,
      "name": "floatBufferViews",
      "target": 34962
    },
    {
      "buffer": 0,
      "byteLength": 4064944,
      "byteOffset": 14117888,
      "byteStride": 16,
      "name": "floatBufferViews",
      "target": 34962
    }
  ],
  "buffers": [
    {
      "byteLength": 18182832,
      "uri": "scene.bin"
    }
  ],
  "extensionsUsed": [
    "KHR_materials_clearcoat"
  ],
  "images": [
    {
      "uri": "textures/earthday_baseColor.jpeg"
    },
    {
      "uri": "textures/earthday_metallicRoughness.png"
    },
    {
      "uri": "textures/earthday_normal.png"
    },
    {
      "uri": "textures/earthday_clearcoat.png"
    },
    {
      "uri": "textures/earthday_clearcoat_roughness.png"
    }
  ],
  "materials": [
    {
      "doubleSided": true,
      "emissiveFactor": [
        0.2,
        0.2,
        0.2
      ],
      "emissiveTexture": {
        "index": 0
      },
      "extensions": {
        "KHR_materials_clearcoat": {
          "clearcoatFactor": 1.0,
          "clearcoatRoughnessFactor": 1.0,
          "clearcoatRoughnessTexture": {
            "index": 4
          },
          "clearcoatTexture": {
            "index": 3
          }
        }
      },
      "name": "earthday",
      "normalTexture": {
        "index": 2
      },
      "pbrMetallicRoughness": {
        "baseColorTexture": {
          "index": 0
        },
        "metallicFactor": 0.0,
        "metallicRoughnessTexture": {
          "index": 1
        }
      }
    }
  ],
  "meshes": [
    {
      "name": "pSphere2_earthday_0",
      "primitives": [
        {
          "attributes": {
            "NORMAL": 1,
            "POSITION": 0,
            "TANGENT": 2,
            "TEXCOORD_0": 3
          },
          "indices": 4,
          "material": 0,
          "mode": 4
        }
      ]
    },
    {
      "name": "pSphere2_earthday_0",
      "primitives": [
        {
          "attributes": {
            "NORMAL": 6,
            "POSITION": 5,
            "TANGENT": 7,
            "TEXCOORD_0": 8
          },
          "indices": 9,
          "material": 0,
          "mode": 4
        }
      ]
    },
    {
      "name": "pSphere2_earthday_0",
      "primitives": [
        {
          "attributes": {
            "NORMAL": 11,
            "POSITION": 10,
            "TANGENT": 12,
            "TEXCOORD_0": 13
          },
          "indices": 14,
          "material": 0,
          "mode": 4
        }
      ]
    },
    {
      "name": "pSphere2_earthday_0",
      "primitives": [
        {
          "attributes": {
            "NORMAL": 16,
            "POSITION": 15,
            "TANGENT": 17,
            "TEXCOORD_0": 18
          },
          "indices": 19,
          "material": 0,
          "mode": 4
        }
      ]
    }
  ],
  "nodes": [
    {
      "children": [
        1
      ],
      "matrix": [
        1.0,
        0.0,
        0.0,
        0.0,
        0.0,
        2.220446049250313e-16,
        -1.0,
        0.0,
        0.0,
        1.0,
        2.220446049250313e-16,
        0.0,
        0.0,
        0.0,
        0.0,
        1.0
      ],
      "name": "Sketchfab_model"
    },
    {
      "children": [
        2
      ],
      "matrix": [
        0.009999999776482582,
        0.0,
        0.0,
        0.0,
        0.0,
        0.0,
        0.009999999776482582,
        0.0,
        0.0,
        -0.009999999776482582,
        0.0,
        0.0,
        0.0,
        0.0,
        0.0,
        1.0
      ],
      "name": "89ea626e32a647e39ef70660a2cb50bf.fbx"
    },
    {
      "children": [
        3
      ],
      "name": "RootNode"
    },
    {
      "children": [
        4,
        5,
        6,
        7
      ],
      "matrix": [
        10.250269889831543,
        0.0,
        0.0,
        0.0,
        0.0,
        10.250269889831543,
        0.0,
        0.0,
        0.0,
        0.0,
        10.250269889831543,
        0.0,
        0.0,
        0.0,
        0.44986003637313843,
        1.0
      ],
      "name": "pSphere2"
    },
    {
      "mesh": 0,
      "name": "pSphere2_earthday_0"
    },
    {
      "mesh": 1,
      "name": "pSphere2_earthday_0"
    },
    {
      "mesh": 2,
      "name": "pSphere2_earthday_0"
    },
    {
      "mesh": 3,
      "name": "pSphere2_earthday_0"
    }
  ],
  "samplers": [
    {
      "magFilter": 9729,
      "minFilter": 9987,
      "wrapS": 10497,
      "wrapT": 10497
    }
  ],
  "scene": 0,
  "scenes": [
    {
      "name": "Sketchfab_Scene",
      "nodes": [
        0
      ]
    }
  ],
  "textures": [
    {
      "sampler": 0,
      "source": 0
    },
    {
      "sampler": 0,
      "source": 1
    },
    {
      "sampler": 0,
      "source": 2
    },
    {
      "sampler": 0,
      "source": 3
    },
    {
      "sampler": 0,
      "source": 4
    }
  ]
}
